# xmcd
#
# Track frame offsets:
#	150
#	11034
#	22338
#	37881
#	48768
#	60815
#	71808
#	84060
#	97444
#	109265
#	119855
#
# Disc length: 1771 seconds
#
# Revision: 1
# Processed by: cddbd v1.5.2PL0 Copyright (c) Steve Scherf et al.
# Submitted via: audiograbber 1.83.01
#
DISCID=9306e90b
DTITLE=The Secret Sisters - The Secret Sisters
DYEAR=2010
DGENRE=Country
TTITLE0=Tennessee Me
TTITLE1=Why Baby Why
TTITLE2=The One I Love Is Gone
TTITLE3=My Heart Skips A Beat
TTITLE4=Something Stupid
TTITLE5=I've Got A Feeling
TTITLE6=Do You Love An Apple
TTITLE7=All About You
TTITLE8=Waste The Day
TTITLE9=Why Don't You Love Me
TTITLE10=House Of Gold
EXTD=
EXTT0=
EXTT1=
EXTT2=
EXTT3=
EXTT4=
EXTT5=
EXTT6=
EXTT7=
EXTT8=
EXTT9=
EXTT10=
PLAYORDER=
